<?xml version="1.0" encoding="UTF-8" standalone="no"?>
<!-- Created with Inkscape (http://www.inkscape.org/) -->

<svg
   width="15.914658"
   height="15.905341"
   viewBox="0 0 15.914658 15.905341"
   version="1.1"
   id="svg1"
   xmlns="http://www.w3.org/2000/svg"
   xmlns:svg="http://www.w3.org/2000/svg">
  <defs
     id="defs1" />
  <g
     id="layer1"
     transform="translate(-0.045635,0.03546122)">
    <g
       id="g2"
       transform="matrix(0.08811019,0,0,0.08811019,-1.4385934,0.69499678)">
      <path
         style="fill:#fdfdfd"
         d="m 16.845139,143.49236 v -3.96875 h 90.311111 90.31111 v 3.96875 3.96875 H 107.15625 16.845139 Z M 190.58819,123.02134 c -4.35247,-0.31965 -73.07333,-0.87205 -74.39342,-0.598 -0.66738,0.13854 -1.66898,0.1411 -3.52993,0.009 -1.429,-0.10142 -6.53401,-0.31747 -11.34448,-0.48011 -8.179623,-0.27654 -9.311031,-0.27659 -17.462498,-6.5e-4 -4.793907,0.16228 -9.827445,0.37595 -11.18564,0.47482 -2.795076,0.20347 -4.140855,0.0423 -4.797417,-0.5745 -0.536518,-0.50403 -0.540816,-1.37127 -0.0092,-1.85229 0.728712,-0.65934 1.533653,-0.7891 5.86493,-0.94544 7.924153,-0.28603 11.554992,-1.12616 11.552933,-2.6732 -5.85e-4,-0.43995 -0.745656,-2.94602 -2.11328,-7.10807 -0.478172,-1.45521 -1.742727,-5.38427 -2.810121,-8.73125 -1.067394,-3.346983 -2.442641,-7.633233 -3.056104,-9.525004 L 76.188596,87.577083 H 59.460497 42.732398 l -1.048167,2.822222 c -1.861572,5.012339 -4.660766,12.958505 -5.871896,16.668755 -3.0915,9.47067 -3.07733,11.45059 0.08513,11.89516 0.435285,0.0612 2.86681,0.26282 5.403391,0.44806 4.576533,0.33421 5.528561,0.51004 6.029007,1.11349 0.333053,0.40161 0.192004,1.00651 -0.322221,1.38186 -0.863494,0.63031 -2.667854,0.73752 -8.751134,0.51998 -3.121044,-0.11161 -7.290548,-0.31772 -9.265565,-0.45803 -4.999844,-0.35521 -8.669212,-0.33401 -10.602399,0.0612 l -1.543402,0.31555 v -1.28866 c 0,-0.70876 0.02816,-1.28865 0.06258,-1.28865 0.03442,0 1.059887,-0.081 2.278819,-0.17997 2.408654,-0.19559 4.443287,-0.64302 5.594353,-1.23025 1.061086,-0.54133 2.230289,-1.84758 2.92162,-3.26409 0.331436,-0.6791 2.899133,-7.82285 5.705994,-15.875 8.630117,-24.757559 16.385264,-46.753324 23.041482,-65.352084 5.103629,-14.260528 5.768323,-16.213141 6.889818,-20.23959 0.301494,-1.082443 0.974404,-1.69286 1.392275,-1.262975 0.13243,0.136237 1.128381,2.748016 2.213225,5.803954 1.084843,3.055938 4.9871,13.731875 8.671681,23.724306 3.684581,9.99243 11.179834,30.391805 16.656118,45.331944 5.476285,14.940135 10.272423,27.812775 10.658103,28.605845 1.45821,2.9986 2.7964,3.56262 9.34347,3.93809 1.66359,0.0954 3.0862,0.21147 3.16136,0.25792 0.0752,0.0464 0.40592,0.006 0.73503,-0.0892 0.3291,-0.0955 1.90806,-0.2902 3.50879,-0.43262 6.09318,-0.54213 6.70525,-0.84182 7.28057,-3.56484 0.32792,-1.55204 0.31277,-93.632822 -0.0157,-95.405969 -0.28022,-1.512751 -0.73239,-2.307707 -1.49201,-2.623137 -0.84673,-0.351606 -3.45262,-0.623215 -5.98467,-0.623777 -2.74615,-6.09e-4 -3.88974,-0.218282 -4.37274,-0.832314 -0.73428,-0.933491 -0.2732,-2.033668 0.94835,-2.262833 0.33925,-0.06364 1.79227,-0.02334 3.22894,0.08957 4.44226,0.349108 18.71964,0.447754 23.95517,0.165512 6.60232,-0.355924 10.24734,-0.334455 10.97765,0.06466 1.00883,0.551318 1.01042,1.901188 0.003,2.227715 -0.31534,0.102171 -2.08788,0.266595 -3.93897,0.365386 -1.8511,0.09879 -3.7915,0.260386 -4.31201,0.359098 -1.82415,0.345944 -2.68268,1.030167 -3.00387,2.394008 -0.44889,1.906015 -0.51432,8.57528 -0.5167,52.661957 l -0.002,46.149224 0.39687,0.10636 c 0.66942,0.17939 18.87882,0.12259 22.8064,-0.0711 10.92656,-0.53898 16.34992,-1.64401 20.15763,-4.10721 2.43305,-1.57393 3.94815,-3.50594 5.12178,-6.53114 1.13344,-2.92157 1.78542,-5.9939 2.13937,-10.081424 0.25296,-2.921214 0.39683,-3.381439 1.17273,-3.751442 0.54348,-0.259166 0.68532,-0.262631 1.34966,-0.03297 0.59533,0.205805 0.78406,0.378905 0.95289,0.873994 0.38567,1.130933 0.23825,18.386642 -0.22415,26.237852 l -0.11687,1.98437 -1.25767,-0.0239 c -0.69172,-0.0131 -2.64673,-0.12591 -4.34448,-0.25059 z M 75.229861,83.908467 c 0,-0.02895 -1.894733,-5.287548 -4.210517,-11.685764 C 68.703559,65.824487 65.152315,55.810421 63.127689,49.969224 61.103064,44.128026 59.397554,39.405213 59.337668,39.474085 58.89278,39.985725 52.291461,58.595314 46.294361,76.244097 l -2.62226,7.717014 h 15.77888 c 8.678384,0 15.77888,-0.02369 15.77888,-0.05264 z"
         id="path8" />
      <path
         style="fill:#afaccc"
         d="m 192.9287,123.1736 c 0.17163,-0.0447 0.40975,-0.0418 0.52917,0.007 0.11942,0.0483 -0.021,0.0849 -0.31204,0.0813 -0.29104,-0.004 -0.38875,-0.0431 -0.21713,-0.0879 z m -2.54997,-0.17465 c 0.12733,-0.051 0.27947,-0.0447 0.33808,0.0139 0.0586,0.0586 -0.0456,0.1003 -0.23151,0.0926 -0.20548,-0.008 -0.24728,-0.0503 -0.10657,-0.10657 z m -3.09783,-0.17748 c 0.16978,-0.0444 0.44759,-0.0444 0.61736,0 0.16978,0.0444 0.0309,0.0807 -0.30868,0.0807 -0.33954,0 -0.47845,-0.0363 -0.30868,-0.0807 z m -14.6492,-0.18601 c 0.84397,-0.0323 2.27272,-0.0324 3.175,-3.3e-4 0.90229,0.0321 0.21177,0.0585 -1.53448,0.0587 -1.74625,1.8e-4 -2.48448,-0.0261 -1.64052,-0.0583 z M 39.114236,122.46394 c 0.266788,-0.0404 0.703351,-0.0404 0.970139,0 0.266788,0.0404 0.04851,0.0735 -0.48507,0.0735 -0.533576,0 -0.751857,-0.0331 -0.485069,-0.0735 z m 5.743663,0.006 c 0.127331,-0.051 0.279466,-0.0447 0.338079,0.0139 0.05861,0.0586 -0.04557,0.1003 -0.231511,0.0926 -0.205483,-0.008 -0.247279,-0.0503 -0.106568,-0.10657 z m 26.811111,0 c 0.127331,-0.051 0.279466,-0.0447 0.338079,0.0139 0.05861,0.0586 -0.04557,0.1003 -0.23151,0.0926 -0.205483,-0.008 -0.24728,-0.0503 -0.106569,-0.10657 z m 41.61675,0.004 c 0.12127,-0.0489 0.31971,-0.0489 0.44098,0 0.12126,0.0489 0.022,0.089 -0.22049,0.089 -0.24253,0 -0.34175,-0.04 -0.22049,-0.089 z m 34.82789,-0.0144 c 0.84396,-0.0323 2.27271,-0.0324 3.175,-3.3e-4 0.90228,0.0321 0.21177,0.0585 -1.53448,0.0587 -1.74625,1.8e-4 -2.48449,-0.0261 -1.64052,-0.0583 z M 34.351736,122.2923 c 0.169774,-0.0444 0.447587,-0.0444 0.617361,0 0.169774,0.0444 0.03087,0.0807 -0.308681,0.0807 -0.339548,0 -0.478454,-0.0363 -0.30868,-0.0807 z m 39.777751,-0.003 c 0.219412,-0.0422 0.536912,-0.0406 0.705556,0.004 0.168643,0.0441 -0.01088,0.0787 -0.398932,0.0767 -0.388056,-0.002 -0.526036,-0.0381 -0.306624,-0.0803 z m 36.336113,0 c 0.21941,-0.0422 0.53691,-0.0406 0.70555,0.004 0.16865,0.0441 -0.0109,0.0787 -0.39893,0.0767 -0.38805,-0.002 -0.52603,-0.0381 -0.30662,-0.0803 z m 13.12999,-0.006 c 0.84397,-0.0323 2.27272,-0.0324 3.175,-3.4e-4 0.90229,0.0321 0.21177,0.0585 -1.53448,0.0587 -1.74625,1.8e-4 -2.48448,-0.0261 -1.64052,-0.0583 z m -92.507049,-0.16201 c 0.121268,-0.0489 0.319705,-0.0489 0.440973,0 0.121267,0.0489 0.02205,0.089 -0.220487,0.089 -0.242534,0 -0.341753,-0.04 -0.220486,-0.089 z m 47.979835,-0.008 c 0.219412,-0.0422 0.536912,-0.0406 0.705555,0.004 0.168644,0.0442 -0.01088,0.0787 -0.398931,0.0767 -0.388056,-0.002 -0.526036,-0.0381 -0.306624,-0.0803 z m 26.458334,0 c 0.21941,-0.0422 0.53691,-0.0406 0.70555,0.004 0.16865,0.0442 -0.0109,0.0787 -0.39893,0.0767 -0.38805,-0.002 -0.52603,-0.0381 -0.30662,-0.0803 z m -77.084002,-0.16846 c 0.121267,-0.0489 0.319705,-0.0489 0.440972,0 0.121268,0.0489 0.02205,0.089 -0.220486,0.089 -0.242535,0 -0.341753,-0.04 -0.220486,-0.089 z m 55.564557,-0.008 c 0.219412,-0.0422 0.536912,-0.0406 0.705555,0.004 0.168644,0.0442 -0.01088,0.0787 -0.398931,0.0767 -0.388056,-0.002 -0.526037,-0.0381 -0.306624,-0.0803 z m 16.580555,0 c 0.21941,-0.0422 0.53691,-0.0406 0.70556,0.004 0.16864,0.0442 -0.0109,0.0787 -0.39894,0.0767 -0.38805,-0.002 -0.52603,-0.0381 -0.30662,-0.0803 z m 95.67921,-0.31622 c 0.004,-0.29104 0.0431,-0.38875 0.0879,-0.21713 0.0447,0.17162 0.0418,0.40975 -0.007,0.52917 -0.0483,0.11942 -0.0849,-0.021 -0.0813,-0.31204 z M 19.810677,121.7647 c 0.12733,-0.051 0.279466,-0.0447 0.338078,0.0139 0.05861,0.0586 -0.04557,0.10031 -0.23151,0.0927 -0.205483,-0.008 -0.247279,-0.0503 -0.106568,-0.10657 z m 5.986198,0.004 c 0.121267,-0.0489 0.319705,-0.0489 0.440972,0 0.121267,0.0489 0.02205,0.089 -0.220486,0.089 -0.242535,0 -0.341754,-0.04 -0.220486,-0.089 z m 63.149279,-0.008 c 0.219412,-0.0422 0.536912,-0.0406 0.705555,0.004 0.168643,0.0442 -0.01088,0.0787 -0.398931,0.0767 -0.388056,-0.002 -0.526037,-0.0381 -0.306624,-0.0803 z m 6.702778,0 c 0.219412,-0.0422 0.536912,-0.0406 0.705555,0.004 0.168643,0.0442 -0.01088,0.0787 -0.398931,0.0767 -0.388056,-0.002 -0.526037,-0.0381 -0.306624,-0.0803 z m 18.529798,-1.93602 c 0.12733,-0.051 0.27947,-0.0447 0.33808,0.0139 0.0586,0.0586 -0.0456,0.1003 -0.23151,0.0926 -0.20548,-0.008 -0.24728,-0.0503 -0.10657,-0.10657 z m -96.933359,-0.17813 c 0.17162,-0.0447 0.409745,-0.0418 0.529166,0.007 0.119421,0.0483 -0.021,0.0849 -0.312037,0.0813 -0.291042,-0.004 -0.38875,-0.0431 -0.217129,-0.0879 z m 93.394559,0.005 c 0.12127,-0.0489 0.31971,-0.0489 0.44097,0 0.12127,0.0489 0.0221,0.089 -0.22048,0.089 -0.24254,0 -0.34176,-0.04 -0.22049,-0.089 z m -67.641782,-0.18181 c 0.171621,-0.0447 0.409746,-0.0418 0.529167,0.007 0.119421,0.0483 -0.021,0.0849 -0.312037,0.0813 -0.291042,-0.004 -0.38875,-0.0431 -0.21713,-0.0879 z m 76.108452,0.005 c 0.12126,-0.0489 0.3197,-0.0489 0.44097,0 0.12127,0.0489 0.0221,0.089 -0.22049,0.089 -0.24253,0 -0.34175,-0.04 -0.22048,-0.089 z m -78.845836,-0.17639 c 0.121267,-0.0489 0.319705,-0.0489 0.440972,0 0.121267,0.0489 0.02205,0.089 -0.220486,0.089 -0.242535,0 -0.341754,-0.04 -0.220486,-0.089 z m 81.149916,-0.004 c 0.12733,-0.051 0.27946,-0.0447 0.33808,0.0139 0.0586,0.0586 -0.0456,0.1003 -0.23151,0.0926 -0.20549,-0.008 -0.24728,-0.0503 -0.10657,-0.10657 z m -83.431948,-0.17639 c 0.127331,-0.051 0.279467,-0.0447 0.338079,0.0139 0.05861,0.0586 -0.04557,0.1003 -0.23151,0.0926 -0.205483,-0.008 -0.24728,-0.0503 -0.106569,-0.10657 z m 37.471615,-0.17748 c 0.169774,-0.0444 0.447587,-0.0444 0.617361,0 0.169775,0.0444 0.03087,0.0807 -0.30868,0.0807 -0.339549,0 -0.478455,-0.0363 -0.308681,-0.0807 z m 2.745052,-0.17529 c 0.127331,-0.051 0.279466,-0.0447 0.338079,0.0139 0.05861,0.0586 -0.04557,0.1003 -0.231511,0.0927 -0.205483,-0.008 -0.247279,-0.0503 -0.106568,-0.10657 z m 65.167091,-0.006 c 0.26813,-0.0405 0.665,-0.0395 0.88195,0.002 0.21695,0.0419 -0.002,0.075 -0.4875,0.0737 -0.48506,-0.001 -0.66257,-0.0356 -0.39445,-0.0761 z m 18.87362,0 c 0.26812,-0.0405 0.66499,-0.0395 0.88194,0.002 0.21695,0.0419 -0.002,0.075 -0.48749,0.0737 -0.48507,-0.001 -0.66258,-0.0356 -0.39445,-0.0761 z M 142.52092,71.966666 c 0,-25.757187 0.0204,-36.294219 0.0454,-23.415625 0.025,12.878594 0.025,33.952657 0,46.83125 -0.025,12.878599 -0.0454,2.341563 -0.0454,-23.415625 z M 166.7316,118.5929 c 0.12126,-0.0489 0.3197,-0.0489 0.44097,0 0.12127,0.0489 0.022,0.089 -0.22049,0.089 -0.24253,0 -0.34175,-0.04 -0.22048,-0.089 z M 34.10875,118.22465 c -0.219405,-0.27976 -0.213166,-0.286 0.0666,-0.0666 0.293819,0.23043 0.387258,0.37527 0.242084,0.37527 -0.03663,0 -0.175534,-0.1389 -0.308681,-0.30868 z m 135.44507,0.19186 c 0.12127,-0.0489 0.3197,-0.0489 0.44097,0 0.12127,0.0489 0.0221,0.089 -0.22048,0.089 -0.24254,0 -0.34176,-0.04 -0.22049,-0.089 z m 26.89969,-0.67693 c 0.002,-0.38805 0.0381,-0.52603 0.0803,-0.30662 0.0422,0.21941 0.0406,0.53691 -0.004,0.70555 -0.0442,0.16865 -0.0787,-0.0109 -0.0767,-0.39893 z M 25.840972,117.58479 c 0,-0.0366 0.138906,-0.17553 0.30868,-0.30868 0.279763,-0.2194 0.286002,-0.21316 0.0666,0.0666 -0.230429,0.29382 -0.375277,0.38726 -0.375277,0.24208 z M 127.17504,68.527083 c 0,-24.835556 0.0205,-34.969326 0.0454,-22.519489 0.025,12.449837 0.025,32.769837 0,45.155556 -0.025,12.38572 -0.0454,2.199489 -0.0454,-22.636067 z m 60.67913,44.361807 c 0.17559,-0.19403 0.35894,-0.35278 0.40745,-0.35278 0.0485,0 -0.0555,0.15875 -0.23106,0.35278 -0.1756,0.19403 -0.35895,0.35278 -0.40746,0.35278 -0.0485,0 0.0555,-0.15875 0.23107,-0.35278 z m 8.7877,-0.70556 c 0,-0.63059 0.032,-0.88856 0.0711,-0.57326 0.0391,0.31529 0.0391,0.83123 0,1.14653 -0.0391,0.31529 -0.0711,0.0573 -0.0711,-0.57327 z m -3.74669,-13.332057 c 0.008,-0.205483 0.0503,-0.24728 0.10656,-0.106568 0.051,0.12733 0.0447,0.279466 -0.0139,0.338078 -0.0586,0.05861 -0.1003,-0.04557 -0.0926,-0.23151 z m 0.19031,-2.190162 c 0,-0.242535 0.04,-0.341754 0.089,-0.220486 0.0489,0.121267 0.0489,0.319705 0,0.440972 -0.0489,0.121267 -0.089,0.02205 -0.089,-0.220486 z M 142.62434,21.945717 c 0.008,-0.205483 0.0503,-0.247279 0.10657,-0.106568 0.051,0.12733 0.0447,0.279466 -0.0139,0.338078 -0.0586,0.05861 -0.10031,-0.04557 -0.0927,-0.23151 z M 121.75243,17.34568 c 0.12127,-0.04893 0.31971,-0.04893 0.44097,0 0.12127,0.04893 0.0221,0.08897 -0.22048,0.08897 -0.24254,0 -0.34176,-0.04004 -0.22049,-0.08897 z m 26.72627,-0.181805 c 0.17163,-0.04472 0.40975,-0.04178 0.52917,0.0065 0.11942,0.04832 -0.021,0.08491 -0.31204,0.08131 -0.29104,-0.0036 -0.38875,-0.04313 -0.21713,-0.08785 z m 3.61262,-0.170972 c 0.12127,-0.04893 0.3197,-0.04893 0.44097,0 0.12127,0.04893 0.0221,0.08897 -0.22048,0.08897 -0.24254,0 -0.34176,-0.04004 -0.22049,-0.08897 z m -26.27879,-2.48046 c 0.31704,-0.03926 0.79329,-0.03845 1.05834,0.0018 0.26505,0.04025 0.006,0.07237 -0.57643,0.07138 -0.58208,-9.9e-4 -0.79894,-0.03392 -0.48191,-0.07318 z m 15.34268,0.01102 c 0.12127,-0.04893 0.3197,-0.04893 0.44097,0 0.12127,0.04893 0.0221,0.08897 -0.22049,0.08897 -0.24253,0 -0.34175,-0.04003 -0.22048,-0.08897 z m -20.10833,-0.176389 c 0.12126,-0.04893 0.3197,-0.04893 0.44097,0 0.12126,0.04893 0.0221,0.08897 -0.22049,0.08897 -0.24253,0 -0.34175,-0.04004 -0.22048,-0.08897 z m 23.10694,0 c 0.12127,-0.04893 0.3197,-0.04893 0.44097,0 0.12127,0.04893 0.0221,0.08897 -0.22048,0.08897 -0.24254,0 -0.34176,-0.04004 -0.22049,-0.08897 z m -25.74175,-0.180063 c 0.12733,-0.05095 0.27946,-0.04469 0.33807,0.01392 0.0586,0.05861 -0.0456,0.100302 -0.23151,0.09264 -0.20548,-0.0085 -0.24728,-0.05026 -0.10656,-0.106568 z m 29.0952,-0.0043 c 0.21941,-0.04219 0.53691,-0.04059 0.70555,0.0036 0.16864,0.04415 -0.0109,0.07867 -0.39893,0.07671 -0.38806,-0.002 -0.52604,-0.03808 -0.30662,-0.08027 z"
         id="path7" />
      <path
         style="fill:#837caf"
         d="m 189.84957,122.99895 c 0.12733,-0.051 0.27946,-0.0447 0.33807,0.0139 0.0586,0.0586 -0.0456,0.1003 -0.23151,0.0926 -0.20548,-0.008 -0.24727,-0.0503 -0.10656,-0.10657 z m -3.44725,-0.17813 c 0.17162,-0.0447 0.40974,-0.0418 0.52916,0.007 0.11942,0.0483 -0.021,0.0849 -0.31204,0.0813 -0.29104,-0.004 -0.38875,-0.0431 -0.21712,-0.0879 z m -18.51686,-0.18512 c 0.65888,-0.034 1.69075,-0.0338 2.29306,5.6e-4 0.6023,0.0343 0.0632,0.0622 -1.19796,0.0619 -1.26118,-3.1e-4 -1.75398,-0.0284 -1.0951,-0.0624 z m 28.37503,-0.22181 c 0,-0.24254 0.04,-0.34175 0.089,-0.22049 0.0489,0.12127 0.0489,0.31971 0,0.44097 -0.0489,0.12127 -0.089,0.022 -0.089,-0.22048 z m -158.380976,0.0548 c 0.169774,-0.0444 0.447586,-0.0444 0.617361,0 0.169774,0.0444 0.03087,0.0807 -0.308681,0.0807 -0.339548,0 -0.478455,-0.0363 -0.30868,-0.0807 z m 105.487896,-0.009 c 0.65887,-0.034 1.69075,-0.0338 2.29305,5.6e-4 0.6023,0.0343 0.0632,0.0622 -1.19796,0.0619 -1.26118,-3.1e-4 -1.75397,-0.0284 -1.09509,-0.0624 z m -109.622011,-0.1663 c 0.127331,-0.051 0.279466,-0.0447 0.338079,0.0139 0.05861,0.0586 -0.04557,0.1003 -0.231511,0.0926 -0.205483,-0.008 -0.247279,-0.0503 -0.106568,-0.10657 z m 41.531916,-0.002 c 0.171621,-0.0447 0.409746,-0.0418 0.529167,0.007 0.119421,0.0483 -0.021,0.0849 -0.312038,0.0813 -0.291041,-0.004 -0.388749,-0.0431 -0.217129,-0.0878 z m 34.219445,0 c 0.17162,-0.0447 0.40975,-0.0418 0.52917,0.007 0.11942,0.0483 -0.021,0.0849 -0.31204,0.0813 -0.29104,-0.004 -0.38875,-0.0431 -0.21713,-0.0878 z m 9.35259,-0.009 c 0.65888,-0.034 1.69075,-0.0338 2.29306,5.6e-4 0.6023,0.0343 0.0632,0.0622 -1.19797,0.0619 -1.26118,-3e-4 -1.75397,-0.0284 -1.09509,-0.0624 z m -88.278951,-0.16591 c 0.127331,-0.051 0.279466,-0.0447 0.338079,0.0139 0.05861,0.0586 -0.04557,0.1003 -0.231511,0.0926 -0.205483,-0.008 -0.247279,-0.0503 -0.106568,-0.10656 z m 49.645805,-0.002 c 0.171621,-0.0447 0.409746,-0.0418 0.529167,0.007 0.119421,0.0483 -0.021,0.0849 -0.312038,0.0813 -0.291041,-0.004 -0.38875,-0.0431 -0.217129,-0.0878 z m 24.341666,0 c 0.17162,-0.0447 0.40975,-0.0418 0.52917,0.007 0.11942,0.0483 -0.021,0.0849 -0.31204,0.0813 -0.29104,-0.004 -0.38875,-0.0431 -0.21713,-0.0878 z m -76.633304,-0.17464 c 0.12733,-0.051 0.279466,-0.0447 0.338078,0.0139 0.05861,0.0586 -0.04557,0.1003 -0.23151,0.0927 -0.205483,-0.008 -0.24728,-0.0503 -0.106568,-0.10657 z m 57.230527,-0.002 c 0.171621,-0.0447 0.409746,-0.0418 0.529167,0.007 0.119421,0.0483 -0.021,0.0849 -0.312038,0.0813 -0.291042,-0.004 -0.38875,-0.0431 -0.217129,-0.0878 z m 14.463889,0 c 0.171621,-0.0447 0.409748,-0.0418 0.529168,0.007 0.11942,0.0483 -0.021,0.0849 -0.312039,0.0813 -0.291042,-0.004 -0.38875,-0.0431 -0.217129,-0.0878 z m -74.34025,-0.17465 c 0.127331,-0.051 0.279466,-0.0447 0.338079,0.0139 0.05861,0.0586 -0.04557,0.10031 -0.23151,0.0927 -0.205483,-0.008 -0.24728,-0.0503 -0.106569,-0.10657 z m 64.81525,-0.002 c 0.171621,-0.0447 0.409746,-0.0418 0.529167,0.007 0.119421,0.0483 -0.021,0.0849 -0.312038,0.0813 -0.291042,-0.004 -0.38875,-0.0431 -0.217129,-0.0879 z m 4.586111,0 c 0.171621,-0.0447 0.409746,-0.0418 0.529167,0.007 0.119421,0.0483 -0.021,0.0849 -0.312038,0.0813 -0.291041,-0.004 -0.38875,-0.0431 -0.217129,-0.0879 z m -27.373807,-0.86261 c 0.0085,-0.20548 0.05026,-0.24728 0.106569,-0.10656 0.05095,0.12733 0.04469,0.27946 -0.01393,0.33807 -0.05861,0.0586 -0.100302,-0.0456 -0.09264,-0.23151 z m 44.050224,-1.25232 c 0.12733,-0.051 0.27947,-0.0447 0.33808,0.0139 0.0586,0.0586 -0.0456,0.1003 -0.23151,0.0926 -0.20548,-0.008 -0.24728,-0.0503 -0.10657,-0.10657 z m -67.556944,-0.17639 c 0.12733,-0.051 0.279466,-0.0447 0.338078,0.0139 0.05861,0.0586 -0.04557,0.1003 -0.23151,0.0926 -0.205483,-0.008 -0.247279,-0.0503 -0.106568,-0.10657 z m -2.822222,-0.17639 c 0.12733,-0.051 0.279466,-0.0447 0.338078,0.0139 0.05861,0.0586 -0.04557,0.1003 -0.23151,0.0926 -0.205483,-0.008 -0.24728,-0.0503 -0.106568,-0.10657 z m 33.679253,-0.3491 c 0.121267,-0.0489 0.319705,-0.0489 0.440972,0 0.121268,0.0489 0.02205,0.089 -0.220486,0.089 -0.242535,0 -0.341753,-0.04 -0.220486,-0.089 z m 121.780283,-0.23596 c 0,-0.24253 0.04,-0.34175 0.089,-0.22048 0.0489,0.12126 0.0489,0.3197 0,0.44097 -0.0489,0.12127 -0.089,0.022 -0.089,-0.22049 z m -51.5775,0.0519 c 0.21828,-0.0421 0.57546,-0.0421 0.79375,0 0.21828,0.042 0.0397,0.0764 -0.39688,0.0764 -0.43656,0 -0.61516,-0.0344 -0.39687,-0.0764 z m 15.78923,-0.002 c 0.26812,-0.0405 0.66499,-0.0395 0.88194,0.002 0.21695,0.0419 -0.002,0.075 -0.48749,0.0737 -0.48507,-10e-4 -0.66258,-0.0356 -0.39445,-0.0761 z m 5.37743,-0.16664 c 0.12127,-0.0489 0.31971,-0.0489 0.44097,0 0.12127,0.0489 0.0221,0.089 -0.22048,0.089 -0.24254,0 -0.34176,-0.04 -0.22049,-0.089 z M 33.43962,116.49016 c 0.0085,-0.20548 0.05026,-0.24728 0.106568,-0.10657 0.05095,0.12733 0.04469,0.27947 -0.01393,0.33808 -0.05861,0.0586 -0.100301,-0.0456 -0.09264,-0.23151 z m 163.18672,-2.71933 c 0,-0.33955 0.0363,-0.47845 0.0807,-0.30868 0.0444,0.16978 0.0444,0.44759 0,0.61736 -0.0444,0.16978 -0.0807,0.0309 -0.0807,-0.30868 z m -54.002,-91.295946 c 0.008,-0.205483 0.0503,-0.24728 0.10657,-0.106569 0.051,0.127331 0.0447,0.279467 -0.0139,0.338079 -0.0586,0.05861 -0.10031,-0.04557 -0.0927,-0.23151 z M 121.04688,17.34568 c 0.12126,-0.04893 0.3197,-0.04893 0.44097,0 0.12126,0.04893 0.0221,0.08897 -0.22049,0.08897 -0.24253,0 -0.34175,-0.04004 -0.22048,-0.08897 z m 28.31377,-0.181805 c 0.17162,-0.04472 0.40974,-0.04178 0.52917,0.0065 0.11942,0.04832 -0.021,0.08491 -0.31204,0.08131 -0.29104,-0.0036 -0.38875,-0.04313 -0.21713,-0.08785 z m -21.69919,-2.649937 c 0.26679,-0.04041 0.70335,-0.04041 0.97014,0 0.26679,0.04042 0.0485,0.07348 -0.48507,0.07348 -0.53358,0 -0.75186,-0.03307 -0.48507,-0.07348 z m 12.97561,0.0058 c 0.12733,-0.05095 0.27946,-0.04469 0.33807,0.01393 0.0586,0.05861 -0.0456,0.100302 -0.23151,0.09264 -0.20548,-0.0085 -0.24728,-0.05026 -0.10656,-0.10657 z m -18.88464,-0.172714 c 0.12127,-0.04893 0.31971,-0.04893 0.44097,0 0.12127,0.04893 0.0221,0.08897 -0.22048,0.08897 -0.24254,0 -0.34176,-0.04004 -0.22049,-0.08897 z m 21.88325,-0.0037 c 0.12733,-0.05095 0.27946,-0.04469 0.33808,0.01393 0.0586,0.05861 -0.0456,0.100302 -0.23151,0.09264 -0.20549,-0.0085 -0.24728,-0.05026 -0.10657,-0.106568 z m 2.98758,-0.172715 c 0.12127,-0.04893 0.31971,-0.04893 0.44098,0 0.12126,0.04893 0.022,0.08897 -0.22049,0.08897 -0.24253,0 -0.34175,-0.04004 -0.22049,-0.08897 z"
         id="path6" />
      <path
         style="fill:#898893"
         d="m 61.956597,147.50521 c 24.859809,-0.0246 65.539493,-0.0246 90.399303,0 24.85981,0.0246 4.51997,0.0448 -45.19965,0.0448 -49.719618,0 -70.059462,-0.0202 -45.199653,-0.0448 z"
         id="path5" />
      <path
         style="fill:#757776"
         d="m 61.956597,139.39132 c 24.859809,-0.0246 65.539493,-0.0246 90.399303,0 24.85981,0.0246 4.51997,0.0448 -45.19965,0.0448 -49.719618,0 -70.059462,-0.0202 -45.199653,-0.0448 z"
         id="path4" />
      <path
         style="fill:#5a5196"
         d="m 191.77882,123.17901 c 0.12127,-0.0489 0.3197,-0.0489 0.44097,0 0.12127,0.0489 0.0221,0.089 -0.22048,0.089 -0.24254,0 -0.34176,-0.04 -0.22049,-0.089 z m 4.46774,-0.16246 c 0.008,-0.20548 0.0503,-0.24728 0.10657,-0.10657 0.051,0.12733 0.0447,0.27947 -0.0139,0.33808 -0.0586,0.0586 -0.1003,-0.0456 -0.0927,-0.23151 z m -7.11357,-0.0139 c 0.12126,-0.0489 0.3197,-0.0489 0.44097,0 0.12127,0.0489 0.0221,0.089 -0.22049,0.089 -0.24253,0 -0.34175,-0.04 -0.22048,-0.089 z m -4.32153,-0.18591 c 0.26679,-0.0404 0.70335,-0.0404 0.97014,0 0.26679,0.0404 0.0485,0.0735 -0.48507,0.0735 -0.53358,0 -0.75186,-0.0331 -0.48507,-0.0735 z m -22.76309,-0.18126 c 0.84396,-0.0323 2.27271,-0.0324 3.175,-3.3e-4 0.90229,0.0321 0.21177,0.0585 -1.53448,0.0587 -1.74625,1.8e-4 -2.48448,-0.0261 -1.64052,-0.0583 z M 36.735042,122.46552 c 0.219413,-0.0422 0.536913,-0.0406 0.705556,0.004 0.168643,0.0441 -0.01088,0.0787 -0.398932,0.0767 -0.388055,-0.002 -0.526036,-0.0381 -0.306624,-0.0803 z m 100.795268,-0.006 c 0.84397,-0.0323 2.27272,-0.0324 3.175,-3.3e-4 0.90229,0.0321 0.21177,0.0585 -1.53448,0.0587 -1.74625,1.8e-4 -2.48448,-0.0261 -1.64052,-0.0583 z M 32.943982,122.29165 c 0.17162,-0.0447 0.409745,-0.0418 0.529166,0.007 0.119421,0.0483 -0.02099,0.0849 -0.312037,0.0813 -0.291042,-0.004 -0.38875,-0.0431 -0.217129,-0.0878 z m 43.302172,-0.003 c 0.219412,-0.0422 0.536912,-0.0406 0.705555,0.004 0.168643,0.0441 -0.01088,0.0787 -0.398931,0.0767 -0.388056,-0.002 -0.526037,-0.0381 -0.306624,-0.0803 z m 32.102776,0 c 0.21941,-0.0422 0.53691,-0.0406 0.70556,0.004 0.16864,0.0441 -0.0109,0.0787 -0.39893,0.0767 -0.38806,-0.002 -0.52604,-0.0381 -0.30663,-0.0803 z m 8.73255,0.003 c 0.17162,-0.0447 0.40975,-0.0418 0.52917,0.007 0.11942,0.0483 -0.021,0.0849 -0.31204,0.0813 -0.29104,-0.004 -0.38875,-0.0431 -0.21713,-0.0878 z m -87.040248,-0.17464 c 0.127331,-0.051 0.279466,-0.0447 0.338079,0.0139 0.05861,0.0586 -0.04557,0.1003 -0.23151,0.0926 -0.205483,-0.008 -0.24728,-0.0503 -0.106569,-0.10656 z m 51.143811,-0.004 c 0.219412,-0.0422 0.536912,-0.0406 0.705555,0.004 0.168643,0.0442 -0.01088,0.0787 -0.398931,0.0767 -0.388056,-0.002 -0.526037,-0.0381 -0.306624,-0.0803 z m 22.224997,0 c 0.21941,-0.0422 0.53691,-0.0406 0.70556,0.004 0.16864,0.0442 -0.0109,0.0787 -0.39893,0.0767 -0.38806,-0.002 -0.52604,-0.0381 -0.30663,-0.0803 z m -76.014641,-0.17213 c 0.127331,-0.051 0.279466,-0.0447 0.338079,0.0139 0.05861,0.0586 -0.04557,0.1003 -0.231511,0.0927 -0.205483,-0.008 -0.247279,-0.0503 -0.106568,-0.10657 z m 58.728532,-0.004 c 0.219413,-0.0422 0.536913,-0.0406 0.705556,0.004 0.168643,0.0442 -0.01088,0.0787 -0.398932,0.0767 -0.388055,-0.002 -0.526036,-0.0381 -0.306624,-0.0803 z m 12.347223,0 c 0.219412,-0.0422 0.536912,-0.0406 0.705555,0.004 0.168644,0.0442 -0.01088,0.0787 -0.398931,0.0767 -0.388056,-0.002 -0.526037,-0.0381 -0.306624,-0.0803 z M 20.681597,121.7679 c 0.121267,-0.0489 0.319705,-0.0489 0.440972,0 0.121267,0.0489 0.02205,0.089 -0.220486,0.089 -0.242535,0 -0.341753,-0.04 -0.220486,-0.089 z m 3.351389,-0.008 c 0.218281,-0.042 0.575469,-0.042 0.79375,0 0.218281,0.042 0.03969,0.0764 -0.396875,0.0764 -0.436563,0 -0.615156,-0.0344 -0.396875,-0.0764 z m 67.029834,-2.7e-4 c 0.219413,-0.0422 0.536913,-0.0406 0.705556,0.004 0.168643,0.0442 -0.01088,0.0787 -0.398932,0.0767 -0.388055,-0.002 -0.526036,-0.0381 -0.306624,-0.0803 z m 2.469445,0 c 0.219412,-0.0422 0.536912,-0.0406 0.705555,0.004 0.168644,0.0442 -0.01088,0.0787 -0.398931,0.0767 -0.388056,-0.002 -0.526037,-0.0381 -0.306624,-0.0803 z m 102.911145,-2.2565 c 0.004,-0.29104 0.0431,-0.38875 0.0879,-0.21713 0.0447,0.17162 0.0418,0.40975 -0.007,0.52917 -0.0483,0.11942 -0.0849,-0.021 -0.0813,-0.31204 z m -84.48056,0.143 c 0.16977,-0.0444 0.44758,-0.0444 0.61736,0 0.16977,0.0444 0.0309,0.0807 -0.30868,0.0807 -0.33955,0 -0.47846,-0.0363 -0.30868,-0.0807 z m -92.68134,-0.1753 c 0.127331,-0.051 0.279466,-0.0447 0.338079,0.0139 0.05861,0.0586 -0.04557,0.1003 -0.231511,0.0926 -0.205483,-0.008 -0.247279,-0.0503 -0.106568,-0.10657 z m 98.95417,0 c 0.12733,-0.051 0.27946,-0.0447 0.33808,0.0139 0.0586,0.0586 -0.0456,0.1003 -0.23151,0.0926 -0.20549,-0.008 -0.24728,-0.0503 -0.10657,-0.10657 z m -76.72917,-0.17639 c 0.127331,-0.051 0.279466,-0.0447 0.338079,0.0139 0.05861,0.0586 -0.04557,0.1003 -0.231511,0.0926 -0.205483,-0.008 -0.247279,-0.0503 -0.106568,-0.10657 z m -2.656857,-0.17271 c 0.121267,-0.0489 0.319704,-0.0489 0.440972,0 0.121267,0.0489 0.02205,0.089 -0.220486,0.089 -0.242535,0 -0.341754,-0.04 -0.220486,-0.089 z m -2.105643,-0.18006 c 0.127331,-0.051 0.279466,-0.0447 0.338079,0.0139 0.05861,0.0586 -0.04557,0.1003 -0.231511,0.0926 -0.205483,-0.008 -0.247279,-0.0503 -0.106568,-0.10656 z m 36.592096,-0.006 c 0.268122,-0.0405 0.664997,-0.0395 0.881944,0.002 0.216948,0.0419 -0.0024,0.075 -0.487495,0.0737 -0.485069,-0.001 -0.662571,-0.0356 -0.394449,-0.0761 z m 3.977349,-0.17031 c 0.12733,-0.051 0.279466,-0.0447 0.338078,0.0139 0.05861,0.0586 -0.04557,0.1003 -0.23151,0.0927 -0.205483,-0.008 -0.247279,-0.0503 -0.106568,-0.10657 z m 69.492115,-0.01 c 0.51257,-0.0357 1.30632,-0.0354 1.76388,8.4e-4 0.45757,0.0362 0.0382,0.0654 -0.93195,0.065 -0.97014,-4.6e-4 -1.34451,-0.0301 -0.83193,-0.0658 z m 11.46402,8.7e-4 c 0.41488,-0.0373 1.04988,-0.0367 1.41111,0.001 0.36124,0.0379 0.0218,0.0684 -0.75431,0.0677 -0.77611,-6.4e-4 -1.07167,-0.0317 -0.6568,-0.0689 z m 6.78631,-0.1686 c 0.16978,-0.0444 0.44759,-0.0444 0.61736,0 0.16978,0.0444 0.0309,0.0807 -0.30868,0.0807 -0.33955,0 -0.47845,-0.0363 -0.30868,-0.0807 z m 3.43959,-0.17162 c 0.12126,-0.0489 0.3197,-0.0489 0.44097,0 0.12127,0.0489 0.022,0.089 -0.22049,0.089 -0.24253,0 -0.34175,-0.04 -0.22048,-0.089 z m 2.48047,-0.18006 c 0.12733,-0.051 0.27946,-0.0447 0.33807,0.0139 0.0586,0.0586 -0.0456,0.1003 -0.23151,0.0926 -0.20548,-0.008 -0.24728,-0.0503 -0.10656,-0.10657 z m 25.6575,-3.23089 c 0,-0.43657 0.0344,-0.61516 0.0764,-0.39688 0.042,0.21828 0.042,0.57547 0,0.79375 -0.042,0.21828 -0.0764,0.0397 -0.0764,-0.39687 z m -3.73828,-17.036232 c 0.008,-0.205483 0.0503,-0.247279 0.10656,-0.106568 0.051,0.127331 0.0447,0.279466 -0.0139,0.338079 -0.0586,0.05861 -0.1003,-0.04557 -0.0926,-0.231511 z M 142.63827,23.106944 c 0,-0.242535 0.04,-0.341754 0.089,-0.220486 0.0489,0.121267 0.0489,0.319705 0,0.440972 -0.0489,0.121267 -0.089,0.02205 -0.089,-0.220486 z m -15.71254,-1.161227 c 0.008,-0.205483 0.0503,-0.247279 0.10657,-0.106568 0.051,0.12733 0.0447,0.279466 -0.0139,0.338078 -0.0586,0.05861 -0.1003,-0.04557 -0.0926,-0.23151 z m -3.92755,-4.427322 c 0.12733,-0.05095 0.27946,-0.04469 0.33808,0.01392 0.0586,0.05861 -0.0456,0.100302 -0.23151,0.09264 -0.20549,-0.0085 -0.24728,-0.05026 -0.10657,-0.106568 z m -3.00758,-0.180649 c 0.21941,-0.04219 0.53691,-0.04059 0.70555,0.0036 0.16865,0.04415 -0.0109,0.07867 -0.39893,0.07671 -0.38805,-0.002 -0.52603,-0.03808 -0.30662,-0.08027 z m 30.25199,-0.173871 c 0.17162,-0.04472 0.40975,-0.04178 0.52917,0.0065 0.11942,0.04832 -0.021,0.08491 -0.31204,0.08131 -0.29104,-0.0036 -0.38875,-0.04313 -0.21713,-0.08785 z m -35.65016,-1.641653 c 0,-0.242535 0.04,-0.341754 0.089,-0.220486 0.0489,0.121267 0.0489,0.319704 0,0.440972 -0.0489,0.121267 -0.089,0.02205 -0.089,-0.220486 z m 39.98993,-0.837848 c -0.2194,-0.279762 -0.21316,-0.286001 0.0666,-0.0666 0.29382,0.230429 0.38726,0.375277 0.24208,0.375277 -0.0366,0 -0.17553,-0.138906 -0.30868,-0.308681 z m -39.84139,0.0657 c 0,-0.03663 0.13891,-0.175535 0.30868,-0.308681 0.27977,-0.219405 0.286,-0.213166 0.0666,0.0666 -0.23043,0.293819 -0.37528,0.387258 -0.37528,0.242084 z m 15.21354,-0.240142 c 0.55783,-0.035 1.47065,-0.035 2.02848,0 0.55783,0.035 0.10142,0.06364 -1.01424,0.06364 -1.11566,0 -1.57207,-0.02864 -1.01424,-0.06364 z m 9.61526,0.0056 c 0.21941,-0.04219 0.53691,-0.04059 0.70555,0.0036 0.16864,0.04415 -0.0109,0.07867 -0.39893,0.07671 -0.38806,-0.002 -0.52604,-0.03808 -0.30662,-0.08027 z m -16.93334,-0.176389 c 0.21941,-0.04219 0.53691,-0.04059 0.70556,0.0036 0.16864,0.04415 -0.0109,0.07867 -0.39893,0.07671 -0.38806,-0.002 -0.52604,-0.03808 -0.30663,-0.08027 z m 20.28267,0.0079 c 0.12126,-0.04893 0.3197,-0.04893 0.44097,0 0.12127,0.04893 0.022,0.08897 -0.22049,0.08897 -0.24253,0 -0.34175,-0.04004 -0.22048,-0.08897 z M 119.28299,14.17068 c 0.12126,-0.04893 0.3197,-0.04893 0.44097,0 0.12127,0.04893 0.022,0.08897 -0.22049,0.08897 -0.24253,0 -0.34175,-0.04004 -0.22048,-0.08897 z m 26.54988,-0.0054 c 0.17162,-0.04472 0.40975,-0.04178 0.52917,0.0065 0.11942,0.04832 -0.021,0.08491 -0.31204,0.08131 -0.29104,-0.0036 -0.38875,-0.04313 -0.21713,-0.08785 z"
         id="path3" />
      <path
         style="fill:#0b0064;stroke-width:0.999708"
         d="M 16.845139,159.97435 V 147.7225 h 90.311111 90.31111 v 12.25185 12.25185 H 107.15625 16.845139 Z m 0,-29.23536 v -8.34551 l 0.954002,-0.21338 c 1.664684,-0.37232 4.191104,-0.56825 6.013359,-0.46635 0.970139,0.0543 3.748264,0.22997 6.173611,0.39049 2.562026,0.16959 6.885634,0.29804 10.31875,0.30658 5.656151,0.0141 5.935406,-7.9e-4 6.525419,-0.34718 0.339015,-0.19905 0.694587,-0.58412 0.79016,-0.85572 0.151519,-0.4306 0.112082,-0.54685 -0.308001,-0.90798 -0.744106,-0.63968 -1.435068,-0.75621 -6.831189,-1.15214 -2.977602,-0.21845 -5.259222,-0.46565 -5.596485,-0.60631 -0.829759,-0.34607 -1.281226,-1.19495 -1.282023,-2.4106 -0.0014,-2.15101 2.394068,-9.86756 6.897679,-22.219486 l 2.362079,-6.478401 16.592557,-9.3e-5 16.592557,-9.3e-5 1.099266,3.393497 c 0.604596,1.866424 1.972382,6.130332 3.039524,9.475356 1.067142,3.34502 2.483534,7.74775 3.147539,9.78385 2.225684,6.82482 2.21464,6.70351 0.673762,7.40054 -1.8,0.81423 -4.273269,1.12206 -11.896683,1.48074 -2.66886,0.12557 -3.304954,0.20804 -3.790554,0.49149 -1.211365,0.70705 -1.322994,1.81249 -0.262216,2.59665 0.475538,0.35153 0.679557,0.36798 3.96875,0.32024 1.907093,-0.0277 7.31713,-0.19123 12.022303,-0.36345 8.212444,-0.30059 8.900809,-0.30045 17.197915,0.003 10.63606,0.38957 8.46834,0.36504 48.06597,0.54365 17.99608,0.0812 34.62514,0.22794 36.95348,0.32616 2.32833,0.0983 5.55371,0.2242 7.16752,0.27998 l 2.93418,0.10141 0.10837,-2.007 c 0.15907,-2.94619 0.34622,-25.626176 0.21575,-26.145713 -0.18276,-0.727765 -0.78682,-1.158272 -1.62521,-1.158272 -0.41034,0 -0.87456,0.04927 -1.0316,0.109505 -0.57313,0.219804 -0.85432,1.182793 -1.08313,3.709463 -0.58713,6.483307 -2.11272,11.449057 -4.3584,14.186467 -2.59056,3.15782 -7.00981,4.97852 -14.23373,5.86416 -5.70125,0.69896 -16.3468,1.06559 -25.62445,0.88249 l -6.13347,-0.12105 0.0579,-48.586285 c 0.0611,-51.264392 0.0395,-49.868576 0.79268,-51.251664 0.48538,-0.891288 2.59235,-1.366613 6.91847,-1.56078 1.50371,-0.06749 3.04297,-0.175484 3.42057,-0.239988 1.48472,-0.253629 1.77233,-1.864366 0.45608,-2.554219 -0.56555,-0.296408 -1.00602,-0.313972 -5.64054,-0.224936 -2.7649,0.05311 -6.2574,0.180358 -7.76111,0.282756 -2.97916,0.202871 -10.77867,0.119163 -19.40278,-0.208239 -3.5924,-0.136381 -5.55568,-0.146158 -5.90903,-0.02944 -1.09647,0.362236 -1.22263,1.840329 -0.22088,2.587814 0.42755,0.319018 0.93367,0.384136 4.49647,0.57851 5.93752,0.323932 6.34046,0.468857 6.89706,2.480655 0.25629,0.926357 0.28886,5.468947 0.34043,47.475633 0.0415,33.831553 0.003,46.831233 -0.14206,47.849853 -0.28067,1.97163 -0.60489,2.68874 -1.39858,3.09342 -0.86403,0.44054 -3.07246,0.83031 -6.00369,1.05963 -1.30969,0.10245 -2.69875,0.26063 -3.0868,0.35148 -0.38806,0.0909 -0.98337,0.12865 -1.32292,0.084 -0.33955,-0.0447 -1.94577,-0.16149 -3.56937,-0.25956 -3.21045,-0.1939 -5.06049,-0.5096 -6.10382,-1.04155 -0.92446,-0.47135 -1.91419,-1.61802 -2.50423,-2.90133 -0.27297,-0.59372 -4.438906,-11.82848 -9.257634,-24.966189 C 88.839969,77.468271 82.117558,59.183045 78.720006,49.972122 70.207251,26.893642 69.118189,23.92065 67.004473,17.990295 65.987767,15.13777 65.078199,12.658753 64.983211,12.48137 c -0.09605,-0.179375 -0.366819,-0.322516 -0.610065,-0.322516 -0.6128,0 -1.047597,0.793307 -1.493517,2.724984 -0.202384,0.876707 -0.594985,2.149315 -0.872448,2.828013 -0.277462,0.678701 -0.640121,1.70997 -0.805909,2.291712 -0.165787,0.581744 -1.558211,4.56178 -3.094274,8.844525 -6.201239,17.289865 -17.280093,48.684602 -26.614883,75.420002 -1.861916,5.33264 -3.637092,10.20957 -3.944837,10.83763 -1.422047,2.90211 -3.672507,4.0088 -8.829549,4.34201 l -1.87259,0.12099 V 55.639224 -8.2902784 h 90.311111 90.31111 V 65.397112 139.0845 H 107.15625 16.845139 Z m 26.9875,-46.896672 c 0,-0.08918 4.885666,-14.451299 6.934283,-20.384346 3.26857,-9.466181 8.307824,-23.389082 8.563953,-23.661254 0.0658,-0.06992 1.770099,4.630326 3.787341,10.444983 2.017242,5.814658 5.527881,15.708601 7.801421,21.98654 2.273539,6.277939 4.133736,11.473931 4.133771,11.546648 3.5e-5,0.07272 -7.024623,0.132214 -15.610353,0.132214 -8.585729,0 -15.610416,-0.02916 -15.610416,-0.06478 z"
         id="path2" />
      <path
         style="fill:#050032"
         d="m 61.956597,147.6816 c 24.859809,-0.0246 65.539493,-0.0246 90.399303,0 24.85981,0.0246 4.51997,0.0448 -45.19965,0.0448 -49.719618,0 -70.059462,-0.0202 -45.199653,-0.0448 z m 0,-8.46667 c 24.859809,-0.0246 65.539493,-0.0246 90.399303,0 24.85981,0.0246 4.51997,0.0448 -45.19965,0.0448 -49.719618,0 -70.059462,-0.0202 -45.199653,-0.0448 z"
         id="path1" />
    </g>
  </g>
</svg>
